<svg viewBox="0 0 16 16" version="1.1" xmlns="http://www.w3.org/2000/svg" xmlns:xlink="http://www.w3.org/1999/xlink">
    <path d="M7.48018444,14.6182455 C4.05691064,14.3530922 1.36170213,11.4912959 1.36170213,8 C1.36170213,7.05010693 1.56121388,6.14681233 1.92061869,5.32973489 L1.39914888,4.45957447 L2.38361133,4.45957447 C3.55953509,2.59804721 5.63538561,1.36170213 8,1.36170213 C10.3646144,1.36170213 12.4404649,2.59804721 13.6163887,4.45957447 L14.6008506,4.45957447 L14.0797849,5.33065253 C14.4389355,6.14748862 14.6382979,7.05046252 14.6382979,8 C14.6382979,11.4905004 11.9443175,14.351788 8.52215548,14.6180638 L7.99999974,15.4893617 L7.48018444,14.6182455 Z M8,16 C3.581722,16 0,12.418278 0,8 C0,3.581722 3.581722,0 8,0 C12.418278,0 16,3.581722 16,8 C16,12.418278 12.418278,16 8,16 Z M8,15.4893617 C12.1362603,15.4893617 15.4893617,12.1362603 15.4893617,8 C15.4893617,3.86373975 12.1362603,0.510638298 8,0.510638298 C3.86373975,0.510638298 0.510638298,3.86373975 0.510638298,8 C0.510638298,12.1362603 3.86373975,15.4893617 8,15.4893617 Z M7.48018444,14.6182455 C7.6517109,14.6315313 7.82506523,14.6382979 8,14.6382979 C8.17573028,14.6382979 8.34986572,14.6314696 8.52215548,14.6180638 L9.47462688,13.0287175 L9.47462688,7.39662483 L10.9381558,7.39662483 L10.9381558,10.5825891 L14.0797849,5.33065253 C13.9466155,5.02777804 13.7914776,4.73674622 13.6163887,4.45957447 L2.38361133,4.45957447 C2.20869922,4.73646628 2.0536979,5.02719019 1.92061869,5.32973489 L5.06854963,10.5825891 L5.06854963,7.39662483 L6.53167615,7.39662483 L6.53167615,13.0287175 L7.48018444,14.6182455 Z M8.71489362,6.65529478 L8.71489362,12.8102159 L8,14.0343671 L7.28510638,12.8102159 L7.28510638,6.65529478 L8.71489362,6.65529478 Z M13.2860897,5.22470519 L12.4106274,6.65449242 L3.59871049,6.65449242 L2.72340426,5.22470519 L13.2860897,5.22470519 Z"></path>
</svg>